<svg width="96" height="36" viewBox="0 0 96 36" fill="none" xmlns="http://www.w3.org/2000/svg">
<g clip-path="url(#clip0_9067_126613)">
<path d="M50.5928 9.51766C50.5928 10.6016 49.7231 11.4748 48.6434 11.4748C47.5637 11.4748 46.694 10.6016 46.694 9.51766C46.694 8.4337 47.5337 7.5605 48.6434 7.5605C49.753 7.59061 50.5928 8.46381 50.5928 9.51766ZM42.5553 13.4621C42.5553 13.6427 42.5553 13.9438 42.5553 13.9438C42.5553 13.9438 41.6256 12.7394 39.6462 12.7394C36.3772 12.7394 33.828 15.2386 33.828 18.7012C33.828 22.1338 36.3472 24.663 39.6462 24.663C41.6556 24.663 42.5553 23.4285 42.5553 23.4285V23.9404C42.5553 24.1813 42.7352 24.3619 42.9752 24.3619H45.4044V13.0405C45.4044 13.0405 43.1851 13.0405 42.9752 13.0405C42.7352 13.0405 42.5553 13.2513 42.5553 13.4621ZM42.5553 20.7186C42.1054 21.381 41.2057 21.9531 40.1261 21.9531C38.2067 21.9531 36.7371 20.7487 36.7371 18.7012C36.7371 16.6538 38.2067 15.4494 40.1261 15.4494C41.1757 15.4494 42.1354 16.0516 42.5553 16.6839V20.7186ZM47.2038 13.0405H50.0829V24.3619H47.2038V13.0405ZM90.2104 12.7394C88.231 12.7394 87.3013 13.9438 87.3013 13.9438V7.59061H84.4222V24.3619C84.4222 24.3619 86.6415 24.3619 86.8515 24.3619C87.0914 24.3619 87.2713 24.1512 87.2713 23.9404V23.4285C87.2713 23.4285 88.201 24.663 90.1804 24.663C93.4494 24.663 95.9986 22.1338 95.9986 18.7012C95.9986 15.2687 93.4494 12.7394 90.2104 12.7394ZM89.7306 21.923C88.6209 21.923 87.7512 21.3509 87.3013 20.6885V16.6538C87.7512 16.0516 88.7109 15.4192 89.7306 15.4192C91.65 15.4192 93.1195 16.6236 93.1195 18.6711C93.1195 20.7186 91.65 21.923 89.7306 21.923ZM82.9227 17.6474V24.3921H80.0436V17.9786C80.0436 16.1118 79.4438 15.359 77.8243 15.359C76.9545 15.359 76.0548 15.8107 75.485 16.4731V24.3619H72.6059V13.0405H74.8852C75.1251 13.0405 75.3051 13.2513 75.3051 13.4621V13.9438C76.1448 13.0707 77.2544 12.7394 78.3641 12.7394C79.6237 12.7394 80.6734 13.1008 81.5131 13.8234C82.5328 14.6665 82.9227 15.7505 82.9227 17.6474ZM65.6181 12.7394C63.6387 12.7394 62.709 13.9438 62.709 13.9438V7.59061H59.8299V24.3619C59.8299 24.3619 62.0492 24.3619 62.2591 24.3619C62.4991 24.3619 62.679 24.1512 62.679 23.9404V23.4285C62.679 23.4285 63.6087 24.663 65.5881 24.663C68.8571 24.663 71.4063 22.1338 71.4063 18.7012C71.4363 15.2687 68.8871 12.7394 65.6181 12.7394ZM65.1382 21.923C64.0286 21.923 63.1589 21.3509 62.709 20.6885V16.6538C63.1589 16.0516 64.1186 15.4192 65.1382 15.4192C67.0576 15.4192 68.5272 16.6236 68.5272 18.6711C68.5272 20.7186 67.0576 21.923 65.1382 21.923ZM57.3407 12.7394C58.2104 12.7394 58.6603 12.89 58.6603 12.89V15.5698C58.6603 15.5698 56.261 14.7568 54.7615 16.4731V24.3921H51.8824V13.0405C51.8824 13.0405 54.1017 13.0405 54.3116 13.0405C54.5515 13.0405 54.7315 13.2513 54.7315 13.4621V13.9438C55.2713 13.3115 56.441 12.7394 57.3407 12.7394ZM27.44 23.3382C27.2901 22.9769 27.1401 22.5854 26.9902 22.2542C26.7502 21.7123 26.5103 21.2004 26.3004 20.7186L26.2704 20.6885C24.201 16.172 21.9817 11.5953 19.6425 7.07874L19.5525 6.89808C19.3126 6.44643 19.0726 5.96467 18.8327 5.4829C18.5328 4.94092 18.2329 4.36883 17.753 3.82685C16.7933 2.62244 15.4138 1.96002 13.9442 1.96002C12.4447 1.96002 11.0951 2.62244 10.1054 3.76663C9.65558 4.30861 9.32568 4.8807 9.02577 5.42268C8.78585 5.90445 8.54592 6.38621 8.306 6.83786L8.21602 7.01852C5.90675 11.535 3.65745 16.1118 1.5881 20.6283L1.55811 20.6885C1.34817 21.1703 1.10825 21.6821 0.868321 22.2241C0.718368 22.5553 0.568415 22.9167 0.418462 23.3081C0.0285836 24.4222 -0.0913789 25.476 0.0585742 26.56C0.388471 28.8182 1.888 30.7152 3.95736 31.5583C4.73711 31.8895 5.54686 32.04 6.3866 32.04C6.62652 32.04 6.92643 32.0099 7.16635 31.9798C8.15604 31.8594 9.17573 31.5281 10.1654 30.9561C11.395 30.2635 12.5647 29.2699 13.8843 27.8246C15.2038 29.2699 16.4035 30.2635 17.6031 30.9561C18.5928 31.5281 19.6125 31.8594 20.6022 31.9798C20.8421 32.0099 21.142 32.04 21.3819 32.04C22.2216 32.04 23.0614 31.8895 23.8112 31.5583C25.9105 30.7152 27.38 28.7881 27.7099 26.56C27.9499 25.5061 27.8299 24.4523 27.44 23.3382ZM13.9142 24.9039C12.2948 22.8564 11.2451 20.9294 10.8852 19.3034C10.7352 18.6109 10.7052 18.0087 10.7952 17.4667C10.8552 16.985 11.0351 16.5634 11.2751 16.2021C11.8449 15.3891 12.8046 14.8773 13.9142 14.8773C15.0239 14.8773 16.0136 15.359 16.5534 16.2021C16.7933 16.5634 16.9733 16.985 17.0333 17.4667C17.1232 18.0087 17.0933 18.641 16.9433 19.3034C16.5834 20.8993 15.5337 22.8263 13.9142 24.9039ZM25.8805 26.3191C25.6706 27.8848 24.6209 29.2398 23.1514 29.842C22.4316 30.1431 21.6518 30.2334 20.8721 30.1431C20.1223 30.0528 19.3725 29.8119 18.5928 29.3602C17.5131 28.758 16.4335 27.8246 15.1739 26.4395C17.1532 24.0006 18.3529 21.7725 18.8027 19.7852C19.0127 18.8518 19.0426 18.0087 18.9527 17.2258C18.8327 16.4731 18.5628 15.7806 18.1429 15.1784C17.2132 13.8234 15.6537 13.0405 13.9142 13.0405C12.1748 13.0405 10.6153 13.8535 9.68557 15.1784C9.2657 15.7806 8.99578 16.4731 8.87582 17.2258C8.75586 18.0087 8.78585 18.8819 9.02577 19.7852C9.47563 21.7725 10.7052 24.0307 12.6546 26.4697C11.425 27.8547 10.3154 28.7881 9.23571 29.3903C8.45595 29.842 7.70618 30.0829 6.95642 30.1732C6.14667 30.2635 5.36692 30.1431 4.67713 29.8721C3.20759 29.2699 2.15792 27.9149 1.94798 26.3492C1.85801 25.5965 1.91799 24.8437 2.2179 24.0006C2.30787 23.6995 2.45782 23.3984 2.60778 23.0371C2.81771 22.5553 3.05764 22.0435 3.29756 21.5316L3.32755 21.4714C5.39691 16.985 7.61621 12.4082 9.92549 7.95193L10.0155 7.77127C10.2554 7.31962 10.4953 6.83786 10.7352 6.38621C10.9752 5.90445 11.2451 5.45279 11.575 5.06136C12.2048 4.33872 13.0445 3.94729 13.9742 3.94729C14.9039 3.94729 15.7437 4.33872 16.3735 5.06136C16.7034 5.45279 16.9733 5.90445 17.2132 6.38621C17.4531 6.83786 17.6931 7.31962 17.933 7.77127L18.023 7.95193C20.3022 12.4383 22.5216 17.0151 24.5909 21.5015V21.5316C24.8308 22.0134 25.0408 22.5553 25.2807 23.0371C25.4306 23.3984 25.5806 23.6995 25.6706 24.0006C25.9105 24.7835 26.0005 25.5362 25.8805 26.3191Z" fill="#A1A1AA"/>
</g>
<defs>
<clipPath id="clip0_9067_126613">
<rect width="96" height="36" fill="white"/>
</clipPath>
</defs>
</svg>
