<svg width="96" height="37" viewBox="0 0 96 37" fill="none" xmlns="http://www.w3.org/2000/svg">
<path fill-rule="evenodd" clip-rule="evenodd" d="M58.5934 30.6567C53.4795 34.4216 46.0673 36.4303 39.6855 36.4303C30.7372 36.4303 22.6814 33.1245 16.5869 27.6264C16.108 27.1941 16.5371 26.6048 17.1117 26.9415C23.6888 30.7638 31.8212 33.0633 40.2218 33.0633C45.8872 33.0633 52.1196 31.8925 57.8502 29.4629C58.7159 29.0956 59.4399 30.0292 58.5934 30.6567Z" fill="#A1A1AA"/>
<path fill-rule="evenodd" clip-rule="evenodd" d="M60.7205 28.2291C60.0693 27.3951 56.3996 27.8351 54.7524 28.0302C54.2506 28.0914 54.174 27.6552 54.626 27.3415C57.5488 25.2869 62.3447 25.8799 62.904 26.5686C63.4633 27.2611 62.7584 32.0629 60.0119 34.3547C59.5905 34.7067 59.1883 34.5193 59.376 34.0525C59.9927 32.5144 61.3756 29.0671 60.7205 28.2291Z" fill="#A1A1AA"/>
<path fill-rule="evenodd" clip-rule="evenodd" d="M54.8674 12.8369V10.8396C54.8674 10.5374 55.0973 10.3346 55.3731 10.3346H64.3252C64.6125 10.3346 64.8423 10.5412 64.8423 10.8396V12.5499C64.8385 12.8369 64.5972 13.2118 64.1681 13.8049L59.5293 20.4202C61.2531 20.3781 63.0726 20.6345 64.6355 21.5145C64.9879 21.7134 65.0837 22.0042 65.1105 22.2912V24.4223C65.1105 24.7131 64.7887 25.0536 64.4516 24.8776C61.6974 23.4352 58.0392 23.2783 54.9938 24.8929C54.6836 25.0613 54.358 24.7246 54.358 24.4338V22.4098C54.358 22.0846 54.3618 21.5298 54.6874 21.0362L60.0617 13.3381H55.3846C55.0973 13.3381 54.8674 13.1353 54.8674 12.8369Z" fill="#A1A1AA"/>
<path fill-rule="evenodd" clip-rule="evenodd" d="M22.2098 25.297H19.4863C19.2258 25.2779 19.0189 25.0828 18.9998 24.8341V10.8726C18.9998 10.5933 19.2335 10.3714 19.5246 10.3714H22.0643C22.3286 10.3828 22.5393 10.5856 22.5584 10.8382V12.6632H22.6082C23.2709 10.8994 24.5159 10.0768 26.1937 10.0768C27.8983 10.0768 28.9632 10.8994 29.7293 12.6632C30.3882 10.8994 31.886 10.0768 33.491 10.0768C34.6325 10.0768 35.8813 10.5474 36.6436 11.6034C37.5055 12.778 37.3293 14.4844 37.3293 15.9805L37.3254 24.792C37.3254 25.0713 37.0918 25.297 36.8006 25.297H34.0809C33.8089 25.2779 33.5906 25.0598 33.5906 24.792V17.3923C33.5906 16.8031 33.6442 15.3338 33.514 14.7752C33.311 13.8378 32.7019 13.5738 31.9128 13.5738C31.2539 13.5738 30.5644 14.0138 30.2848 14.7178C30.0051 15.4218 30.0319 16.6003 30.0319 17.3923V24.792C30.0319 25.0713 29.7983 25.297 29.5072 25.297H26.7874C26.5116 25.2779 26.2971 25.0598 26.2971 24.792L26.2933 17.3923C26.2933 15.8351 26.5499 13.5432 24.6155 13.5432C22.658 13.5432 22.7346 15.7777 22.7346 17.3923V24.792C22.7346 25.0713 22.501 25.297 22.2098 25.297Z" fill="#A1A1AA"/>
<path fill-rule="evenodd" clip-rule="evenodd" d="M72.5487 10.0768C76.59 10.0768 78.7773 13.5432 78.7773 17.9509C78.7773 22.2094 76.3602 25.5878 72.5487 25.5878C68.5802 25.5878 66.4197 22.1214 66.4197 17.8017C66.4197 13.4552 68.607 10.0768 72.5487 10.0768ZM72.5717 12.9272C70.5644 12.9272 70.438 15.6591 70.438 17.3617C70.438 19.0681 70.4112 22.7106 72.5487 22.7106C74.6594 22.7106 74.759 19.7721 74.759 17.9815C74.759 16.8031 74.7092 15.3951 74.3529 14.2778C74.0465 13.306 73.4374 12.9272 72.5717 12.9272Z" fill="#A1A1AA"/>
<path fill-rule="evenodd" clip-rule="evenodd" d="M84.017 25.297H81.3049C81.033 25.2779 80.8146 25.0598 80.8146 24.792L80.8108 10.8267C80.8338 10.5703 81.0598 10.3714 81.3356 10.3714H83.86C84.0974 10.3828 84.2928 10.5435 84.3464 10.7616V12.8966H84.3962C85.1585 10.9874 86.2273 10.0768 88.1081 10.0768C89.3301 10.0768 90.5214 10.5168 91.2875 11.722C92 12.8392 92 14.7178 92 16.0685V24.857C91.9694 25.1019 91.7433 25.297 91.4752 25.297H88.744C88.495 25.2779 88.2881 25.0943 88.2613 24.857V17.2737C88.2613 15.7471 88.4375 13.5126 86.5567 13.5126C85.894 13.5126 85.2849 13.9564 84.9823 14.6298C84.5993 15.4831 84.5495 16.3325 84.5495 17.2737V24.792C84.5456 25.0713 84.3081 25.297 84.017 25.297Z" fill="#A1A1AA"/>
<path fill-rule="evenodd" clip-rule="evenodd" d="M47.7306 18.6296C47.7306 19.6894 47.7574 20.5732 47.2212 21.5144C46.7883 22.2797 46.0988 22.7503 45.3365 22.7503C44.2907 22.7503 43.6778 21.9544 43.6778 20.7798C43.6778 18.4612 45.7579 18.0403 47.7306 18.0403V18.6296ZM50.4772 25.2602C50.2971 25.4209 50.0367 25.4324 49.8336 25.3252C48.9296 24.5753 48.7649 24.2272 48.2708 23.5117C46.7768 25.0345 45.7157 25.4898 43.7813 25.4898C41.4867 25.4898 39.7055 24.0779 39.7055 21.2504C39.7055 19.0428 40.9007 17.5391 42.6091 16.8045C44.0877 16.1541 46.1524 16.0393 47.7306 15.8594V15.5074C47.7306 14.8608 47.7804 14.0956 47.3974 13.537C47.0679 13.0358 46.4321 12.8292 45.869 12.8292C44.8309 12.8292 43.9077 13.361 43.6817 14.4629C43.6357 14.7078 43.4557 14.9488 43.2067 14.9603L40.5674 14.6772C40.3452 14.6274 40.0962 14.4476 40.1613 14.1071C40.7666 10.9085 43.6625 9.94427 46.252 9.94427C47.5774 9.94427 49.3088 10.2963 50.3546 11.2987C51.68 12.5346 51.5536 14.1836 51.5536 15.9781V20.2174C51.5536 21.4915 52.0822 22.0501 52.5802 22.7388C52.7526 22.9837 52.7909 23.2783 52.5687 23.4619C52.0132 23.9249 51.0249 24.7858 50.481 25.2679L50.4772 25.2602Z" fill="#A1A1AA"/>
<path fill-rule="evenodd" clip-rule="evenodd" d="M12.0251 18.6296C12.0251 19.6894 12.0519 20.5732 11.5157 21.5144C11.0828 22.2797 10.3971 22.7503 9.631 22.7503C8.58524 22.7503 7.97617 21.9544 7.97617 20.7798C7.97617 18.4612 10.0562 18.0403 12.0251 18.0403V18.6296ZM14.7717 25.2602C14.5916 25.4209 14.3312 25.4324 14.1281 25.3252C13.2241 24.5753 13.0632 24.2272 12.5652 23.5117C11.0713 25.0345 10.0141 25.4898 8.07577 25.4898C5.78506 25.4898 4 24.0779 4 21.2504C4 19.0428 5.19898 17.5391 6.9036 16.8045C8.38222 16.1541 10.4469 16.0393 12.0251 15.8594V15.5074C12.0251 14.8608 12.0749 14.0956 11.6957 13.537C11.3624 13.0358 10.7266 12.8292 10.1673 12.8292C9.12919 12.8292 8.20218 13.361 7.97617 14.4629C7.93021 14.7078 7.75017 14.9488 7.50501 14.9603L4.86189 14.6772C4.63971 14.6274 4.39455 14.4476 4.45584 14.1071C5.06491 10.9085 7.95702 9.94427 10.5465 9.94427C11.8719 9.94427 13.6033 10.2963 14.6491 11.2987C15.9745 12.5346 15.8481 14.1836 15.8481 15.9781V20.2174C15.8481 21.4915 16.3767 22.0501 16.8747 22.7388C17.0509 22.9837 17.0892 23.2783 16.867 23.4619C16.3116 23.9249 15.3233 24.7858 14.7793 25.2679L14.7717 25.2602Z" fill="#A1A1AA"/>
</svg>
