<svg width="84" height="36" viewBox="0 0 84 36" fill="none" xmlns="http://www.w3.org/2000/svg">
<g clip-path="url(#clip0_9067_126601)">
<path d="M34.2907 8.35C34.2907 8.35 34.6165 7.86289 34.888 7.48402C35.3767 6.83453 36.2454 5.91443 36.9513 5.31907C37.1685 5.15669 37.3857 4.9402 37.3857 4.9402C37.3857 4.9402 37.0056 4.99432 36.7884 5.04845C36.2997 5.15669 35.5396 5.64381 35.1595 5.96855C34.5622 6.50979 33.8563 7.32165 34.1821 8.13351C34.2364 8.18763 34.2907 8.35 34.2907 8.35ZM37.7115 9.27011C38.6888 9.21598 39.6119 8.94536 40.4264 8.45825C41.2408 7.97113 42.4897 7.10515 42.3811 6.02268C42.3268 5.69793 42.1096 5.42731 41.8381 5.31907C41.458 5.15669 41.2951 5.21082 40.8064 5.31907C40.4807 5.42731 40.3178 5.48144 39.992 5.64381C39.0146 6.18505 37.6572 7.37577 36.9513 8.29588C36.7884 8.51237 36.6255 8.78299 36.4626 8.94536C36.354 9.05361 36.2997 9.16186 36.2997 9.16186C36.354 9.27011 37.3314 9.27011 37.7115 9.27011ZM35.2138 11.0562C35.1052 11.1644 34.9966 11.4351 34.888 11.5974C34.8337 11.7057 34.7251 11.8139 34.6708 11.8681C34.3993 12.0304 34.1821 12.0845 33.9649 11.8681C33.6391 11.5433 33.422 11.1103 33.422 10.6232V10.0278C33.3677 9.75722 33.0962 9.43248 32.9333 9.16186C32.7704 8.83711 32.6075 8.29588 32.6075 7.91701C32.5532 6.78041 33.1505 5.75206 33.9106 4.9402C34.6708 4.12834 35.7025 3.42473 36.7884 2.99174C37.8201 2.55875 39.3404 2.23401 40.4807 2.667C40.8607 2.77524 41.3494 3.09999 41.6209 3.42473C41.6752 3.47885 41.7295 3.5871 41.7838 3.5871C41.8381 3.64123 41.9467 3.64123 42.0553 3.64123C42.4354 3.69535 42.924 3.96597 43.1412 4.18246C43.5756 4.56133 43.7928 4.88607 43.9014 5.42731C44.1186 6.45567 43.5213 7.59227 42.8698 8.29588C41.7295 9.4866 40.535 10.2985 39.0689 10.8938C38.4173 11.1644 37.3857 11.3809 36.6798 11.3268C36.4626 11.3268 36.1911 11.2727 35.9739 11.2186C35.8654 11.2186 35.431 11.1103 35.3767 11.0562C35.3224 11.1103 35.2681 11.0562 35.2138 11.0562ZM36.5712 13.3294C36.6255 13.3294 36.6798 13.3835 36.7341 13.3835C37.2771 13.6 37.4943 14.0871 37.6029 14.5742C37.9287 15.8191 38.0373 18.5253 38.0916 19.5536C38.1459 20.3655 38.1459 21.1232 38.2002 21.9351C38.2545 22.5846 38.2545 23.5047 38.1459 24.1C38.0916 24.3165 37.9287 24.5872 37.7115 24.7495C37.44 24.9119 36.897 24.9119 36.5712 24.8578C35.8111 24.6954 35.5396 24.2083 35.431 23.4506C35.1595 21.6645 35.3224 18.1464 35.431 16.6309C35.4853 16.1438 35.6482 14.5742 35.9196 13.9248C36.0282 13.7624 36.2454 13.2753 36.5712 13.3294ZM13.0603 16.0356C13.0603 16.0356 11.9201 16.0897 11.1599 16.198C10.1826 16.3062 8.33643 16.6309 7.25048 17.0098C6.92469 17.1181 6.27312 17.3887 6.21882 17.7134C6.16452 18.0382 6.38171 18.3088 6.5989 18.5794C6.7618 18.7418 7.52196 19.4995 7.73916 19.6619C8.66222 20.4196 10.5083 21.6103 11.8658 22.1516C12.3545 22.3681 13.1146 22.6387 13.1146 22.6387C13.1146 22.6387 13.0603 20.4196 13.0603 18.2547C13.006 17.1722 13.0603 16.0356 13.0603 16.0356ZM33.7477 16.9016C33.802 17.4969 33.6391 18.6335 33.6391 18.7418C33.5849 19.0665 33.3134 19.8784 33.3134 19.9325C33.0962 20.4196 32.879 20.7985 32.6618 21.1774C32.2817 21.8268 31.4129 22.9093 30.87 23.3423C28.9153 25.0201 25.9289 25.9944 23.3226 26.265C21.5851 26.4815 19.576 26.4274 17.6756 26.1026C17.0241 25.9944 16.101 25.7779 16.101 25.7779C16.101 25.7779 16.101 26.1567 16.0467 26.4274C16.0467 26.5356 15.9381 26.8604 15.8838 26.9686C15.7752 27.2392 15.5037 27.4016 15.2322 27.4557C14.8522 27.5098 14.4178 27.564 14.092 27.4016C13.4947 27.131 13.2775 26.5897 13.1689 25.9944C13.0603 25.5073 13.006 24.5872 13.006 24.5872C13.006 24.5872 12.5716 24.3707 12.1916 24.2083C11.0513 23.667 9.96536 22.9634 9.0423 22.2598C8.77081 22.0433 7.68486 21.1232 7.41337 20.9067C6.7075 20.2572 6.11022 19.6078 5.62155 18.7418C5.24146 18.0923 5.13287 17.4969 5.40436 16.7933C5.78444 15.8191 7.19618 15.1155 8.11924 14.6825C8.82511 14.3577 10.997 13.6541 11.8658 13.5459C12.3002 13.4918 12.9517 13.3835 13.006 13.3294C13.006 13.3294 13.0603 13.3294 13.0603 13.2753C13.0603 13.2211 13.1146 12.301 13.1146 11.9222C13.1146 11.5974 13.3861 9.32423 13.4404 8.83711C13.4947 8.5665 13.6576 7.59227 13.8748 7.32165C13.9834 7.15928 14.2549 7.15928 14.4178 7.26752C15.4494 7.91701 15.7752 10.1361 15.8295 11.2727C15.8838 11.9763 15.8838 13.0047 15.8838 13.0047C15.8838 13.0047 17.0784 12.9505 17.7842 13.0047C18.4901 13.0047 19.2503 13.1129 20.0104 13.2753C20.9335 13.4376 22.7796 13.8165 23.8113 14.3577C24.68 14.7907 25.4945 15.5485 25.766 16.3062C25.9832 17.0098 25.9832 17.4969 25.6031 18.1464C25.1687 18.85 24.4085 19.3913 23.5941 19.4454C23.3769 19.4454 22.4538 19.3371 22.1823 19.1206C22.0737 19.0124 22.0737 18.9042 22.1823 18.7959C22.2366 18.7418 22.6167 18.5253 22.8882 18.417C22.9968 18.3629 23.1054 18.2547 23.214 18.2005C23.4312 18.0382 23.5941 17.8217 23.5941 17.6052C23.5398 17.2804 23.2683 17.1181 22.9425 17.0098C21.5308 16.4686 18.653 15.9815 17.2412 15.8732C16.6983 15.8191 15.9381 15.8191 15.9381 15.8191L16.101 23.4506C16.101 23.4506 16.7526 23.5588 17.2412 23.667C17.5127 23.7212 18.7616 23.8294 19.0874 23.8294C21.5851 23.8835 24.2999 23.667 26.5805 22.5846C27.5578 22.0975 28.4809 21.5562 29.1867 20.7444C30.1098 19.716 30.5985 18.2547 30.4356 16.7933C30.2727 15.1696 29.1324 13.2211 28.2094 12.0304C25.766 8.94536 21.6394 6.34742 17.9471 4.88607C14.2006 3.37061 10.5083 2.4505 6.54461 2.34225C5.51295 2.28813 3.28675 2.34225 2.14649 2.667C1.9836 2.72112 1.82071 2.77524 1.65782 2.77524C1.54922 2.77524 1.33203 2.88349 1.27773 2.93762C1.22343 2.93762 1.22343 2.99174 1.22343 2.99174C1.22343 2.99174 1.27773 3.04586 1.33203 3.04586C1.44062 3.09999 1.9293 3.15411 2.20079 3.15411C2.41798 3.20823 2.68947 3.31648 2.74377 3.47885C2.85236 3.64123 2.85236 3.74947 2.74377 3.91184C2.47228 4.23659 1.54922 4.18246 1.11484 4.12834C0.680457 4.07422 0.13748 3.91184 0.0288849 3.53298C-0.0797105 3.09999 0.13748 2.667 0.354671 2.23401C0.84335 1.42215 1.49492 0.989157 2.47228 0.718538C3.82972 0.339671 5.62155 0.0690517 6.92469 0.0149279C9.85677 -0.0933198 12.6802 0.393795 15.558 1.25978C17.187 1.74689 19.3589 2.55875 20.9335 3.31648C22.0737 3.85772 23.8656 4.83195 24.8429 5.53556C25.1687 5.75206 27.0148 7.10515 27.2863 7.32165C27.8836 7.80876 28.6438 8.51237 29.241 9.05361C30.327 10.1361 31.6844 11.8139 32.336 13.1129C32.4989 13.4376 32.6075 13.7624 32.8247 14.0871C32.879 14.1954 33.2048 14.9531 33.2591 15.1696C33.3134 15.3861 33.3677 15.7108 33.3677 15.7108C33.6391 16.0356 33.7477 16.6851 33.7477 16.9016ZM46.5077 17.4969H46.6163C47.5394 17.6052 48.4081 17.7676 49.114 18.0923C49.7656 18.3629 50.0913 18.7418 50.4714 19.3371C50.9601 20.3114 51.0144 21.6103 50.58 22.6387C50.2542 23.3964 49.4941 23.9918 48.7882 24.3707C48.0823 24.6954 47.3765 24.8578 46.562 24.966C45.1503 25.1284 43.5756 24.8578 42.3268 24.2083C41.5666 23.8294 40.6435 23.1799 40.1549 22.3681C39.8291 21.7727 39.8291 20.9609 40.2635 20.4196C40.915 19.4995 42.3811 19.3371 43.4127 19.3371C44.2272 19.3913 45.6932 19.6078 46.5077 19.8784C46.7249 19.9325 47.5394 20.2572 47.6479 20.4196C47.7565 20.5279 47.8108 20.6361 47.7565 20.7985C47.5937 21.3397 46.2362 21.6103 45.8561 21.6645C44.8245 21.8268 44.2815 21.448 43.1412 20.9609C42.8698 20.8526 42.4897 20.7444 42.1639 20.6902C41.6209 20.6361 41.0236 20.7985 40.915 21.3397C40.8607 21.6103 41.1865 21.9351 41.458 22.0433C42.0553 22.314 42.5983 22.4222 43.1955 22.4222C44.9874 22.4763 47.0507 22.1516 48.5167 21.1232C48.7339 20.9609 48.8968 20.7444 48.8968 20.5279C48.8968 20.4737 48.8425 20.2031 48.7339 20.149H48.6796C48.6253 20.149 48.571 20.0408 48.5167 19.9866C48.4081 19.8784 47.9737 19.6619 47.9194 19.6619C46.9421 19.2289 45.096 19.0665 44.1186 18.9583C43.1412 18.85 41.5666 18.7418 41.1865 18.6877C40.8064 18.6335 40.3721 18.5794 40.0463 18.417C39.7205 18.2547 39.3947 17.9299 39.2861 17.5511C39.1232 16.8474 39.3404 16.0356 39.7205 15.4943C40.6978 14.0871 43.0326 13.5459 44.7702 13.3294C46.4534 13.1129 49.1683 13.1129 50.7972 13.9789C51.0687 14.0871 51.1773 14.2495 51.123 14.5201C51.0144 15.0072 50.6343 15.332 50.1456 15.4943C49.657 15.6567 48.6253 15.7108 48.1909 15.7108C46.1819 15.8191 43.7928 15.765 41.8924 16.2521C41.7295 16.3062 41.5123 16.3603 41.4037 16.4686C41.1322 16.7933 41.9467 16.9016 42.1096 16.9016H42.2182L46.5077 17.4969ZM52.6976 24.8578C51.8832 24.5872 51.7203 23.2882 51.666 22.6387C51.5574 20.5279 52.1004 17.5511 52.8062 15.5485C53.0234 14.9531 53.2949 14.033 53.9465 14.0871C54.3809 14.1413 54.7066 14.466 54.9238 14.7907C55.5754 15.6567 56.3899 16.8474 56.9329 17.7134C57.5301 18.6335 58.1274 19.6078 58.7247 20.4196C58.779 20.5279 58.8876 20.6361 58.9419 20.6902C59.0505 20.7985 59.1591 20.7985 59.1591 20.6902C59.1591 20.6361 59.1591 19.6078 59.1048 19.3913C59.0505 19.0665 59.0505 18.7959 58.9962 18.4712C58.8876 17.6052 58.6161 16.4145 58.3989 15.6026C58.1817 14.6825 57.8559 13.7624 57.6387 12.8423C57.5844 12.5717 57.5301 12.2469 57.5301 11.9763C57.5301 11.5974 57.8016 11.3809 58.1817 11.4892C58.9962 11.7598 60.0821 13.5459 60.4079 14.1413C60.5165 14.3577 60.9509 15.3861 61.0595 15.7108C61.3853 16.7392 61.6025 17.6593 61.711 18.7959C61.8196 19.8784 61.711 21.448 61.2767 22.4763C61.1138 22.8552 60.788 23.3964 60.4622 23.667C60.0278 24.1 59.1048 24.4248 58.5075 24.0459C57.8559 23.6671 56.7157 21.7727 56.5528 21.448C55.9012 20.3114 54.8152 18.1464 54.6523 17.9299C54.598 17.8758 54.5438 17.8217 54.4895 17.8217C54.4352 17.8217 54.3809 17.9299 54.3809 18.0382C54.2723 18.6877 54.218 21.6103 54.218 21.7186C54.218 22.2057 54.1637 23.4506 54.0551 24.0459C53.9465 24.4248 53.8922 24.7495 53.5121 24.9119C53.1863 25.0201 53.0234 24.966 52.6976 24.8578ZM63.7201 24.6954C63.6115 24.6413 63.5029 24.4789 63.3943 24.3707C63.3943 24.3707 63.0685 23.9377 63.0142 23.7753C62.9599 23.6671 62.9056 23.5588 62.9056 23.5047C62.6341 22.8011 62.6341 22.1516 62.797 21.448C62.9599 20.7444 63.0685 20.7444 63.3943 19.8243C63.3943 19.7701 63.4486 19.716 63.4486 19.6619C63.4486 19.5536 63.2314 18.6877 63.2314 18.417C63.2314 17.984 63.5572 17.7134 64.1001 17.6593H64.2087C64.4259 17.6052 64.5888 17.1722 64.6974 16.8474C64.8603 16.3603 65.1318 15.6567 65.1318 15.6567C65.1318 15.6567 64.4259 15.4943 64.0458 15.3861C63.6115 15.2237 63.34 15.0072 63.1228 14.6284C62.9056 14.1954 63.0685 13.9248 63.5029 13.8165C63.6658 13.7624 65.0232 13.4918 65.4576 13.4376C66.0006 13.3835 66.4892 13.2753 66.9779 13.2211C67.4123 13.167 69.4213 12.9505 70.0729 12.9505C71.0503 13.0047 71.7018 13.3835 72.2448 14.1954C72.5706 14.6284 72.7335 15.1696 72.2991 15.4402C71.5932 15.8732 69.3127 15.9273 68.8783 15.9273H67.3037L66.815 17.4969H69.367C69.5842 17.4969 69.8014 17.4969 69.9643 17.5511C70.453 17.6593 70.6159 18.0382 70.6159 18.5253C70.6159 19.1206 70.5073 19.4454 70.0186 19.4995C69.7471 19.5536 66.9236 19.5536 66.5435 19.6078C66.3263 19.6619 66.0549 19.6619 66.0549 19.6619C66.0549 19.6619 65.8377 20.2031 65.6748 20.7444C65.5119 21.2856 65.349 21.881 65.349 21.881H65.6205C65.8377 21.881 66.0006 21.881 66.1635 21.8268C67.0322 21.6645 68.3354 21.5021 69.367 21.3397C69.91 21.2315 70.2358 21.2315 70.5073 21.6103C70.7788 21.9351 70.8874 22.2057 70.9417 22.6387C70.9417 23.0176 70.6702 23.2882 70.2901 23.5588C69.2041 24.4248 67.2494 25.3449 65.8377 25.5073C65.1861 25.5614 65.0232 25.5073 64.4259 25.3449C64.3173 25.2908 63.9373 25.1284 63.9373 25.1284C64.0458 24.9119 63.8287 24.7495 63.7201 24.6954ZM81.6383 16.8474C80.9324 17.4428 79.9551 18.6877 79.5207 19.3371C78.9234 20.2031 78.3804 21.1774 77.8375 21.9351C77.7289 22.0975 77.3488 22.6928 77.4031 22.7469C77.4031 22.8011 77.7832 22.8011 78.1632 22.6928C78.9234 22.5846 79.9551 22.0433 80.5523 21.5562C81.4211 20.8526 82.0184 19.9325 82.2899 18.85C82.3985 18.3629 82.4528 17.3346 82.127 16.8474C81.9641 16.7933 81.7469 16.7392 81.6383 16.8474ZM75.8284 25.7779C75.8284 25.7779 75.6113 26.4815 75.4484 26.9686C75.1769 27.8887 74.5253 30.3243 74.3624 31.1361C74.1452 32.2727 73.4936 35.2496 73.4936 35.3037C73.4393 35.4119 73.4394 35.4119 73.3308 35.466C73.0593 35.6284 72.9507 35.5743 72.6249 35.4119C72.1905 35.1954 71.8647 34.9789 71.5389 34.5459C70.9417 33.7341 71.0503 32.2186 71.2131 31.3526C71.6475 28.2135 72.0819 26.8604 73.2765 23.7753V23.667C72.8964 22.8552 72.6792 21.9351 72.6792 21.1774C72.6792 18.7418 74.0909 16.3603 75.6656 14.4119C75.7741 14.2495 76.5343 13.3294 76.9144 13.3835C77.2402 13.3835 77.3488 13.8165 77.2945 14.1413C77.1316 15.2779 76.3171 16.4145 75.7742 17.3346C75.1769 18.417 75.014 18.85 74.7425 19.8243C74.6882 19.9866 74.5796 20.6902 74.5796 20.7985C74.5796 21.0691 74.6339 21.3938 74.6339 21.3938C74.6339 21.3938 75.6113 19.9866 76.2628 19.1748C76.6429 18.6877 76.8601 18.417 77.1859 18.0382C77.5117 17.7134 78.6519 16.4686 78.9777 16.198C79.6836 15.5485 80.0094 15.2779 80.7695 14.8449C81.3668 14.5201 81.9098 14.466 82.5071 14.8449C83.4301 15.4402 83.8645 16.7392 83.9731 17.7675C84.0817 19.0124 83.8645 20.4196 83.2672 21.5021C82.6157 22.8011 81.6926 23.7212 80.498 24.4789C79.2492 25.2908 77.7832 25.8861 76.3714 25.832C76.0456 25.7779 75.8284 25.7779 75.8284 25.7779Z" fill="#A1A1AA"/>
</g>
<defs>
<clipPath id="clip0_9067_126601">
<rect width="84" height="36" fill="white"/>
</clipPath>
</defs>
</svg>
