<svg width="84" height="36" viewBox="0 0 84 36" fill="none" xmlns="http://www.w3.org/2000/svg">
<path d="M10.5075 14.8914V17.7029H17.2923C17.1122 19.2581 16.5718 20.4545 15.7312 21.2321C14.7705 22.1892 13.2094 23.2659 10.5075 23.2659C6.36453 23.2659 3.12222 19.9161 3.12222 15.7887C3.12222 11.6613 6.30448 8.31145 10.5075 8.31145C12.7291 8.31145 14.4103 9.20872 15.6111 10.3453L17.5925 8.37126C15.9113 6.75618 13.6297 5.5 10.5075 5.5C4.80342 5.5 0 10.106 0 15.7887C0 21.4714 4.80342 26.0774 10.5075 26.0774C13.5697 26.0774 15.9113 25.0605 17.7126 23.2061C19.5739 21.3518 20.1744 18.7198 20.1744 16.6261C20.1744 15.9682 20.1143 15.37 20.0543 14.8914H10.5075Z" fill="#A1A1AA"/>
<path d="M28.5806 12.5584C24.918 12.5584 21.8558 15.3699 21.8558 19.1982C21.8558 23.0266 24.8579 25.838 28.5806 25.838C32.3032 25.838 35.3053 23.0864 35.3053 19.258C35.3053 15.3699 32.3032 12.5584 28.5806 12.5584ZM28.5806 23.2659C26.5391 23.2659 24.7979 21.5909 24.7979 19.258C24.7979 16.8653 26.5391 15.2502 28.5806 15.2502C30.622 15.2502 32.3633 16.8653 32.3633 19.258C32.3633 21.5909 30.622 23.2659 28.5806 23.2659Z" fill="#A1A1AA"/>
<path d="M61.3039 14.0539C60.6434 13.2762 59.3825 12.5584 57.7614 12.5584C54.399 12.5584 51.5169 15.4297 51.5169 19.1982C51.5169 22.9069 54.399 25.838 57.7614 25.838C59.3825 25.838 60.6434 25.1202 61.3039 24.3426H61.424V25.2997C61.424 27.812 60.043 29.1878 57.8815 29.1878C56.0802 29.1878 54.9994 27.9317 54.5191 26.7951L51.9973 27.8718C52.7178 29.6066 54.6992 31.8198 57.9415 31.8198C61.3639 31.8198 64.306 29.786 64.306 24.8809V12.9173H61.5441V14.0539H61.3039ZM58.0616 23.2659C56.0201 23.2659 54.5191 21.5311 54.5191 19.258C54.5191 16.9251 56.0802 15.2502 58.0616 15.2502C60.043 15.2502 61.6041 16.985 61.6041 19.3179C61.6642 21.5909 60.103 23.2659 58.0616 23.2659Z" fill="#A1A1AA"/>
<path d="M43.5304 12.5584C39.8678 12.5584 36.8056 15.3699 36.8056 19.1982C36.8056 23.0266 39.8078 25.838 43.5304 25.838C47.2531 25.838 50.2552 23.0864 50.2552 19.258C50.2552 15.3699 47.2531 12.5584 43.5304 12.5584ZM43.5304 23.2659C41.489 23.2659 39.7477 21.5909 39.7477 19.258C39.7477 16.8653 41.489 15.2502 43.5304 15.2502C45.5719 15.2502 47.3131 16.8653 47.3131 19.258C47.3131 21.5909 45.5719 23.2659 43.5304 23.2659Z" fill="#A1A1AA"/>
<path d="M66.5274 5.79717H69.4095V25.896H66.5274V5.79717Z" fill="#A1A1AA"/>
<path d="M78.2959 23.2659C76.7948 23.2659 75.7741 22.6079 75.0536 21.232L84 17.5831L83.6998 16.8055C83.1594 15.3101 81.4181 12.5584 77.9957 12.5584C74.5733 12.5584 71.6912 15.2502 71.6912 19.1982C71.6912 22.9069 74.5132 25.838 78.2959 25.838C81.3581 25.838 83.0993 23.9837 83.8799 22.9069L81.5983 21.4115C80.8177 22.548 79.797 23.2659 78.2959 23.2659ZM78.1158 15.0708C79.3167 15.0708 80.3374 15.669 80.6376 16.5064L74.6333 19.0188C74.5733 16.2671 76.6147 15.0708 78.1158 15.0708Z" fill="#A1A1AA"/>
</svg>
