<svg width="96" height="36" viewBox="0 0 96 36" fill="none" xmlns="http://www.w3.org/2000/svg">
<g clip-path="url(#clip0_9067_126611)">
<path d="M33.8841 19.7965L33.3118 21.4161H33.2641C33.1687 21.0509 32.9938 20.4951 32.7077 19.8282L29.6397 12.1271H26.6352V24.4012H28.6223V16.8272C28.6223 16.3508 28.6223 15.8109 28.6064 15.144C28.5905 14.8106 28.5587 14.5565 28.5428 14.366H28.5905C28.6859 14.8423 28.7971 15.1917 28.8766 15.414L32.5646 24.3695H33.9635L37.6198 15.3346C37.6992 15.1282 37.7787 14.7153 37.8582 14.366H37.9059C37.8582 15.2711 37.8264 16.0809 37.8105 16.5731V24.3536H39.9248V12.0954H37.0316L33.8841 19.7965ZM41.9277 15.5569H43.9943V24.3536H41.9277V15.5569ZM42.9769 11.8413C42.6272 11.8413 42.3411 11.9683 42.1026 12.1906C41.8642 12.4129 41.737 12.6987 41.737 13.0481C41.737 13.3815 41.8642 13.6673 42.1026 13.8896C42.3411 14.1119 42.6272 14.2231 42.9769 14.2231C43.3267 14.2231 43.6287 14.0961 43.8512 13.8896C44.0897 13.6673 44.2169 13.3815 44.2169 13.0481C44.2169 12.7146 44.0897 12.4288 43.8512 12.1906C43.6446 11.9683 43.3425 11.8413 42.9769 11.8413ZM51.3227 15.4775C50.9411 15.3981 50.5437 15.3505 50.1622 15.3505C49.2243 15.3505 48.3659 15.5569 47.6505 15.9697C46.9352 16.3826 46.3629 16.9542 45.9973 17.6687C45.6158 18.3991 45.425 19.2407 45.425 20.2093C45.425 21.0509 45.6158 21.7972 45.9814 22.4799C46.347 23.1468 46.8557 23.6867 47.5393 24.0519C48.191 24.4171 48.9541 24.6077 49.8125 24.6077C50.7981 24.6077 51.6406 24.4012 52.3082 24.0202L52.3241 24.0043V22.0988L52.2447 22.1624C51.9426 22.3847 51.5929 22.5752 51.2432 22.6864C50.8776 22.8134 50.5437 22.8769 50.2576 22.8769C49.431 22.8769 48.7792 22.6387 48.3182 22.1147C47.8413 21.6066 47.6028 20.908 47.6028 20.0346C47.6028 19.1296 47.8413 18.415 48.3341 17.891C48.8269 17.367 49.4786 17.0971 50.2735 17.0971C50.9411 17.0971 51.6247 17.3194 52.2447 17.764L52.3241 17.8275V15.8109L52.3082 15.7951C52.038 15.6839 51.736 15.5569 51.3227 15.4775ZM58.1423 15.414C57.6336 15.414 57.1567 15.5728 56.7434 15.9062C56.3937 16.192 56.1552 16.6049 55.9486 17.0971H55.9327V15.5569H53.8661V24.3536H55.9327V19.86C55.9327 19.0978 56.0916 18.4627 56.4414 18.0022C56.7911 17.5258 57.2362 17.2876 57.7767 17.2876C57.9674 17.2876 58.1582 17.3353 58.3967 17.367C58.6192 17.4305 58.7782 17.4941 58.8895 17.5735L58.9689 17.637V15.5728L58.9212 15.5569C58.7782 15.4616 58.492 15.414 58.1423 15.414ZM63.7697 15.3663C62.3231 15.3663 61.1627 15.7951 60.3519 16.6366C59.5253 17.4782 59.1279 18.6373 59.1279 20.0981C59.1279 21.4637 59.5412 22.5752 60.336 23.385C61.1309 24.1789 62.2118 24.5918 63.5631 24.5918C64.9779 24.5918 66.1065 24.1631 66.9173 23.3056C67.7439 22.4482 68.1413 21.3049 68.1413 19.8917C68.1413 18.4944 67.7598 17.3829 66.9808 16.5731C66.2337 15.7633 65.1368 15.3663 63.7697 15.3663ZM65.423 22.1306C65.0414 22.6228 64.4374 22.861 63.6902 22.861C62.9431 22.861 62.339 22.6228 61.9098 22.0988C61.4806 21.6066 61.2739 20.8921 61.2739 19.987C61.2739 19.0502 61.4965 18.3356 61.9098 17.8275C62.339 17.3194 62.9272 17.0653 63.6743 17.0653C64.4056 17.0653 64.9779 17.3035 65.3912 17.7958C65.8045 18.288 66.027 19.0025 66.027 19.9394C65.9952 20.8921 65.8204 21.6384 65.423 22.1306ZM72.7513 19.2089C72.0995 18.939 71.6862 18.7326 71.4955 18.5579C71.3365 18.3991 71.257 18.1768 71.257 17.891C71.257 17.6528 71.3524 17.4147 71.5909 17.2559C71.8293 17.0971 72.0995 17.0177 72.497 17.0177C72.8467 17.0177 73.2123 17.0812 73.562 17.1765C73.9118 17.2718 74.2297 17.4147 74.484 17.6052L74.5635 17.6687V15.7315L74.5158 15.7157C74.2774 15.6204 73.9595 15.5251 73.5779 15.4457C73.1964 15.3822 72.8467 15.3505 72.5606 15.3505C71.575 15.3505 70.7642 15.5886 70.1284 16.1126C69.4925 16.6049 69.1905 17.2718 69.1905 18.0498C69.1905 18.4627 69.2541 18.8279 69.3971 19.1296C69.5402 19.4312 69.7468 19.7171 70.033 19.9552C70.3191 20.1775 70.7324 20.4316 71.3047 20.6698C71.7816 20.8762 72.1472 21.035 72.3698 21.162C72.5923 21.289 72.7354 21.4319 72.8467 21.5431C72.9262 21.6701 72.9739 21.8289 72.9739 22.0353C72.9739 22.6228 72.5288 22.9087 71.6227 22.9087C71.2729 22.9087 70.9073 22.8451 70.4781 22.7022C70.0489 22.5593 69.6515 22.3529 69.3176 22.1147L69.2382 22.0512V24.0678L69.2858 24.0837C69.5879 24.2266 69.9535 24.3218 70.3986 24.433C70.8437 24.5124 71.2411 24.5759 71.5909 24.5759C72.6559 24.5759 73.5302 24.3377 74.1502 23.8137C74.7861 23.3056 75.1199 22.6546 75.1199 21.813C75.1199 21.2255 74.9609 20.7015 74.6112 20.3046C74.1502 19.9235 73.5779 19.5265 72.7513 19.2089ZM80.5725 15.3663C79.1259 15.3663 77.9654 15.7951 77.1547 16.6366C76.3439 17.4782 75.9306 18.6373 75.9306 20.0981C75.9306 21.4637 76.3439 22.5752 77.1388 23.385C77.9336 24.1789 79.0146 24.5918 80.3658 24.5918C81.7806 24.5918 82.9093 24.1631 83.72 23.3056C84.5466 22.4482 84.944 21.3049 84.944 19.8917C84.944 18.4944 84.5625 17.3829 83.7836 16.5731C83.0364 15.7633 81.9396 15.3663 80.5725 15.3663ZM82.2098 22.1306C81.8283 22.6228 81.2242 22.861 80.4771 22.861C79.714 22.861 79.1259 22.6228 78.6967 22.0988C78.2674 21.6066 78.0608 20.8921 78.0608 19.987C78.0608 19.0502 78.2833 18.3356 78.6967 17.8275C79.1259 17.3194 79.714 17.0653 80.4612 17.0653C81.1765 17.0653 81.7647 17.3035 82.178 17.7958C82.5913 18.288 82.8139 19.0025 82.8139 19.9394C82.8139 20.8921 82.6072 21.6384 82.2098 22.1306ZM95.9922 17.2559V15.5569H93.9097V12.9528L93.8461 12.9687L91.875 13.5562L91.8273 13.5721V15.5569H88.7115V14.4454C88.7115 13.9373 88.8387 13.5403 89.0612 13.2862C89.2838 13.0322 89.6176 12.9052 90.0309 12.9052C90.3171 12.9052 90.6191 12.9687 90.953 13.1116L91.0324 13.1592V11.3649L90.9847 11.3491C90.6986 11.2538 90.3171 11.1903 89.8243 11.1903C89.2043 11.1903 88.6638 11.3332 88.171 11.5714C87.6782 11.8413 87.3126 12.2065 87.0424 12.6987C86.7721 13.1751 86.6291 13.715 86.6291 14.3342V15.5569H85.1825V17.24H86.6291V24.3536H88.7115V17.2559H91.8273V21.7813C91.8273 23.6391 92.7016 24.5759 94.4502 24.5759C94.7363 24.5759 95.0384 24.5283 95.3245 24.4806C95.6266 24.4171 95.8491 24.3377 95.9763 24.2742L95.9922 24.2583V22.5593L95.9127 22.6228C95.7855 22.7022 95.6742 22.7657 95.4835 22.8134C95.3245 22.861 95.1815 22.8769 95.0702 22.8769C94.6569 22.8769 94.3707 22.7816 94.1641 22.5434C93.9733 22.3211 93.8779 21.9559 93.8779 21.4161V17.2559H95.9922Z" fill="#A1A1AA"/>
<path d="M-0.0078125 7.99835H9.73682V17.7319H-0.0078125V7.99835Z" fill="#A1A1AA"/>
<path d="M10.7557 7.99835H20.5003V17.7319H10.7557V7.99835Z" fill="#A1A1AA"/>
<path d="M-0.0078125 18.7462H9.73682V28.4798H-0.0078125V18.7462Z" fill="#A1A1AA"/>
<path d="M10.7557 18.7501H20.5003V28.4837H10.7557V18.7501Z" fill="#A1A1AA"/>
</g>
<defs>
<clipPath id="clip0_9067_126611">
<rect width="96" height="36" fill="white"/>
</clipPath>
</defs>
</svg>
