<svg width="84" height="36" viewBox="0 0 84 36" fill="none" xmlns="http://www.w3.org/2000/svg">
<path d="M79.5111 16.7988L84 28.68C82.6843 28.4996 81.3428 28.2419 80.0012 28.0357L77.473 21.4636L74.8673 27.4945C73.6032 27.2883 72.3391 27.211 71.0491 27.0563L75.6155 16.6699L71.4877 6H75.3317L77.6536 11.9535L80.1302 6H84L79.5111 16.7988ZM68.4693 6H64.9865V26.5924C66.1216 26.6697 67.3084 26.7213 68.4693 26.8501V6ZM61.9939 26.3605C58.8206 26.1543 55.6474 25.9481 52.4226 25.8965V6H55.957V22.5461C57.9951 22.5976 60.0332 22.7523 61.9939 22.8554V26.3605ZM48.6302 17.5977H43.7801V25.6646H40.2715V6H50.2039V9.53086H43.7801V14.0411H48.6302V17.5977ZM34.312 9.53086V25.845C33.1253 25.845 31.9128 25.845 30.7518 25.8965V9.53086H27.0885V6H38.0012V9.53086H34.312ZM23.2703 17.7781C21.7224 17.7781 19.8649 17.7781 18.5491 17.8555V23.1131C20.6388 22.9585 22.7027 22.8038 24.8182 22.7265V26.1285L15.0147 26.9017V6H24.8182V9.53086H18.5491V14.2988C19.9165 14.2988 22.0319 14.2215 23.2703 14.2215V17.7781ZM3.61179 15.7936V28.1645C2.34767 28.3192 1.21253 28.4996 0 28.68V6H3.37961L7.99754 18.8864V6H11.5577V27.211C10.2936 27.4171 9.02948 27.4945 7.68796 27.6749L3.61179 15.7936Z" fill="#A1A1AA"/>
</svg>
