<svg width="96" height="36" viewBox="0 0 96 36" fill="none" xmlns="http://www.w3.org/2000/svg">
<path d="M14.3964 3C6.44565 3 0 9.44548 0 17.3962C0 25.3473 6.44565 31.7922 14.3964 31.7922C22.348 31.7922 28.7929 25.3473 28.7929 17.3962C28.7929 9.44599 22.348 3.00069 14.3962 3.00069L14.3964 3ZM20.9985 23.7635C20.937 23.8641 20.8564 23.9517 20.761 24.0211C20.6657 24.0906 20.5576 24.1405 20.443 24.1682C20.3283 24.1958 20.2094 24.2005 20.0929 24.1821C19.9764 24.1637 19.8647 24.1225 19.7641 24.0609C16.384 21.9962 12.1289 21.5286 7.11765 22.6735C6.88561 22.7263 6.64211 22.6848 6.44067 22.5581C6.23923 22.4314 6.09633 22.2299 6.04338 21.9979C6.017 21.8831 6.01355 21.7641 6.03321 21.6479C6.05287 21.5317 6.09526 21.4205 6.15795 21.3207C6.22064 21.2209 6.30241 21.1344 6.39856 21.0663C6.49471 20.9981 6.60337 20.9496 6.7183 20.9235C12.2023 19.6706 16.9063 20.2101 20.7011 22.5291C21.124 22.7887 21.2581 23.3406 20.9985 23.7635ZM22.7606 19.8435C22.4356 20.3717 21.7446 20.5384 21.2168 20.2135C17.3471 17.8349 11.4483 17.1461 6.87113 18.5355C6.27752 18.7148 5.65056 18.3802 5.47039 17.7877C5.38443 17.5028 5.41495 17.1954 5.55526 16.933C5.69558 16.6706 5.93423 16.4745 6.2189 16.3878C11.4472 14.8014 17.947 15.5698 22.391 18.3006C22.9187 18.6255 23.0855 19.3165 22.7606 19.8435ZM22.9118 15.7617C18.272 13.0058 10.6167 12.7524 6.18675 14.0969C5.47538 14.3126 4.7231 13.911 4.50752 13.1997C4.40386 12.8579 4.44018 12.489 4.60849 12.174C4.77681 11.859 5.06333 11.6237 5.40507 11.5199C10.4904 9.97617 18.9441 10.2744 24.2861 13.4457C24.4384 13.5357 24.5713 13.655 24.6774 13.7965C24.7835 13.938 24.8607 14.0991 24.9044 14.2705C24.9482 14.4419 24.9577 14.6203 24.9324 14.7953C24.9072 14.9704 24.8476 15.1388 24.7571 15.2908C24.3789 15.9307 23.5503 16.1416 22.9125 15.7617H22.9118ZM39.1678 16.2898C36.682 15.697 36.2401 15.281 36.2401 14.4068C36.2401 13.581 37.0172 13.0252 38.1741 13.0252C39.295 13.0252 40.4056 13.4472 41.5711 14.3161C41.6055 14.3424 41.6502 14.3529 41.6932 14.346C41.7148 14.3429 41.7355 14.3354 41.7542 14.324C41.7728 14.3126 41.7889 14.2975 41.8015 14.2796L43.0152 12.5688C43.0391 12.5348 43.0493 12.4931 43.0435 12.4519C43.0378 12.4108 43.0166 12.3734 42.9842 12.3473C41.5969 11.2346 40.0359 10.6936 38.2102 10.6936C35.5267 10.6936 33.6512 12.3042 33.6512 14.6087C33.6512 17.0799 35.2688 17.9549 38.0641 18.6304C40.4417 19.1782 40.8439 19.6372 40.8439 20.4576C40.8439 21.367 40.0325 21.9326 38.726 21.9326C37.275 21.9326 36.0906 21.4427 34.7669 20.2977C34.7339 20.2698 34.6914 20.2557 34.6482 20.2582C34.6035 20.2616 34.564 20.2823 34.5365 20.3149L33.175 21.9343C33.1182 22.0031 33.1251 22.1028 33.1904 22.1612C34.7308 23.5365 36.6252 24.262 38.671 24.262C41.5625 24.262 43.4312 22.6821 43.4312 20.2358C43.4364 18.1717 42.2003 17.0285 39.1729 16.292L39.1678 16.2898ZM49.9742 13.8383C48.7209 13.8383 47.6929 14.3321 46.8436 15.3438V14.205C46.8438 14.162 46.8269 14.1206 46.7966 14.09C46.7663 14.0594 46.7251 14.0421 46.682 14.0419H44.4558C44.3664 14.0419 44.2942 14.1151 44.2942 14.205V26.8579C44.2942 26.9473 44.3664 27.0212 44.4558 27.0212H46.682C46.7714 27.0212 46.8436 26.9473 46.8436 26.8579V22.8644C47.6929 23.815 48.7209 24.2809 49.9742 24.2809C52.3036 24.2809 54.6622 22.4879 54.6622 19.0601C54.6656 15.6317 52.307 13.8382 49.9759 13.8382L49.9742 13.8383ZM52.0732 19.0601C52.0732 20.8049 50.9987 22.0237 49.4584 22.0237C47.937 22.0237 46.7886 20.7499 46.7886 19.0601C46.7886 17.3702 47.937 16.0967 49.4584 16.0967C50.973 16.0966 52.0732 17.3427 52.0732 19.0601ZM60.7049 13.8383C57.705 13.8383 55.355 16.1481 55.355 19.0974C55.355 22.0151 57.6895 24.2998 60.6688 24.2998C63.6789 24.2998 66.0358 21.9979 66.0358 19.0601C66.0358 16.1323 63.6944 13.8387 60.7049 13.8387V13.8383ZM60.7049 22.0409C59.1095 22.0409 57.9061 20.7585 57.9061 19.0593C57.9061 17.3524 59.0683 16.1137 60.6688 16.1137C62.2744 16.1137 63.4847 17.3957 63.4847 19.0966C63.4847 20.8032 62.3157 22.0409 60.7049 22.0409ZM72.4413 14.0419H69.9915V11.5378C69.9916 11.5165 69.9875 11.4954 69.9794 11.4757C69.9714 11.4559 69.9595 11.438 69.9445 11.4229C69.9295 11.4077 69.9116 11.3957 69.892 11.3875C69.8723 11.3792 69.8512 11.3749 69.8299 11.3748H67.6037C67.5143 11.3748 67.4404 11.4481 67.4404 11.5378V14.0419H66.3711C66.2817 14.0419 66.2095 14.1151 66.2095 14.205V16.1179C66.2095 16.2076 66.2817 16.281 66.3711 16.281H67.4404V21.2312C67.4404 23.2305 68.4357 24.2448 70.4007 24.2448C71.1983 24.2448 71.8602 24.0798 72.4842 23.7256C72.5358 23.6981 72.5668 23.6431 72.5668 23.5847V21.7624C72.5668 21.7074 72.5375 21.6541 72.4894 21.6249C72.466 21.6099 72.439 21.6014 72.4112 21.6002C72.3835 21.599 72.3559 21.6051 72.3312 21.618C71.9032 21.8329 71.4889 21.9326 71.0247 21.9326C70.3113 21.9326 69.9915 21.6077 69.9915 20.8822V16.2819H72.4413C72.5307 16.2819 72.6029 16.2086 72.6029 16.1187V14.206C72.6036 14.1847 72.6 14.1634 72.5922 14.1435C72.5845 14.1236 72.5728 14.1055 72.5578 14.0902C72.5429 14.075 72.525 14.0629 72.5053 14.0548C72.4855 14.0467 72.4643 14.0426 72.443 14.0429L72.4413 14.0419ZM80.9749 14.0517V13.7441C80.9749 12.8394 81.3222 12.4359 82.0992 12.4359C82.5634 12.4359 82.9365 12.528 83.3542 12.6673C83.4058 12.6834 83.4591 12.6753 83.5003 12.6446C83.5213 12.6295 83.5383 12.6096 83.5499 12.5865C83.5616 12.5635 83.5676 12.538 83.5674 12.5122V10.6367C83.5678 10.6016 83.5567 10.5674 83.536 10.5392C83.5152 10.511 83.4858 10.4904 83.4522 10.4804C83.0121 10.3492 82.4482 10.2146 81.6024 10.2146C79.5481 10.2146 78.4599 11.3723 78.4599 13.5612V14.0322H77.3906C77.3012 14.0322 77.2273 14.1055 77.2273 14.1952V16.1179C77.2273 16.2076 77.3012 16.281 77.3906 16.281H78.4599V23.9147C78.4599 24.0059 78.5338 24.0781 78.6232 24.0781H80.8477C80.9388 24.0781 81.011 24.0059 81.011 23.9147V16.2815H83.0895L86.2733 23.9147C85.9122 24.7159 85.5564 24.8757 85.0716 24.8757C84.6796 24.8757 84.2653 24.7588 83.8441 24.5268C83.8042 24.5066 83.7582 24.5023 83.7152 24.5147C83.6722 24.5302 83.6361 24.5611 83.6189 24.6024L82.8642 26.2579C82.8281 26.337 82.8591 26.4281 82.9347 26.4694C83.7221 26.8957 84.4321 27.0779 85.3105 27.0779C86.954 27.0779 87.8634 26.3112 88.6628 24.2517L92.524 14.2745C92.534 14.2498 92.5377 14.223 92.5347 14.1965C92.5317 14.1701 92.5221 14.1448 92.5068 14.123C92.4922 14.1012 92.4726 14.0833 92.4495 14.071C92.4264 14.0586 92.4006 14.0522 92.3744 14.0522H90.057C89.9865 14.0522 89.9247 14.0964 89.9023 14.1615L87.5282 20.9407L84.9289 14.1571C84.9173 14.1263 84.8966 14.0998 84.8696 14.0811C84.8426 14.0624 84.8105 14.0523 84.7776 14.0522H80.9749V14.0517ZM76.0273 14.0419H73.8011C73.7117 14.0419 73.6378 14.1151 73.6378 14.205V23.9147C73.6378 24.0059 73.7117 24.0781 73.8011 24.0781H76.0273C76.1167 24.0781 76.1906 24.0059 76.1906 23.9147V14.2057C76.1907 14.1843 76.1865 14.163 76.1783 14.1432C76.1701 14.1234 76.1581 14.1053 76.1429 14.0902C76.1277 14.075 76.1097 14.063 76.0899 14.0548C76.07 14.0467 76.0488 14.0425 76.0273 14.0426V14.0419ZM74.9271 9.62048C74.0452 9.62048 73.33 10.3343 73.33 11.216C73.33 12.0982 74.0452 12.8129 74.9271 12.8129C75.809 12.8129 76.5224 12.0982 76.5224 11.216C76.5224 10.3344 75.8073 9.62048 74.9271 9.62048ZM94.4253 17.164C93.5451 17.164 92.8592 16.4565 92.8592 15.5975C92.8592 14.7385 93.5537 14.023 94.4339 14.023C95.3141 14.023 96 14.7302 96 15.5886C96 16.4476 95.3055 17.164 94.4253 17.164ZM94.4339 14.1787C93.6311 14.1787 93.0242 14.8165 93.0242 15.5975C93.0242 16.3781 93.6276 17.0073 94.4253 17.0073C95.2281 17.0073 95.835 16.3701 95.835 15.5886C95.835 14.8079 95.2316 14.1787 94.4339 14.1787ZM94.7812 15.7496L95.2247 16.3699H94.8499L94.4511 15.8009H94.109V16.3699H93.7961V14.7257H94.5284C94.9118 14.7257 95.1628 14.9212 95.1628 15.2502C95.1645 15.5198 95.0081 15.6845 94.7829 15.7496H94.7812ZM94.5164 15.0078H94.109V15.5279H94.5164C94.7193 15.5279 94.8413 15.4283 94.8413 15.2676C94.8413 15.0984 94.7193 15.0078 94.5164 15.0078Z" fill="#A1A1AA"/>
</svg>
