<svg width="96" height="36" viewBox="0 0 96 36" fill="none" xmlns="http://www.w3.org/2000/svg">
<g clip-path="url(#clip0_9067_126617)">
<path d="M17.2982 8.55143C15.7439 7.54736 14.8112 5.83712 14.8057 4H10.8753L10.8698 19.6569C10.7976 21.4665 9.26543 22.8788 7.44459 22.8126C5.62375 22.7464 4.2026 21.2127 4.26922 19.4032C4.33584 17.6378 5.79584 16.2475 7.57227 16.2475C7.90535 16.2475 8.23288 16.2971 8.54931 16.402V12.4133C8.22733 12.3691 7.8998 12.3471 7.57227 12.3415C3.5864 12.3415 0.338867 15.5689 0.338867 19.53C0.338867 23.5022 3.5753 26.7186 7.57227 26.7186C11.5692 26.7186 14.8057 23.5022 14.8057 19.53V11.5912C16.3989 12.7277 18.3141 13.3401 20.2737 13.3401V9.43414C19.219 9.43414 18.1864 9.13071 17.2982 8.55143Z" fill="#A1A1AA"/>
<path d="M24.0327 9.45668H36.4233L35.2852 12.9765H32.0655V26.0074H28.0629V12.9765L24.0327 12.982V9.45668Z" fill="#A1A1AA"/>
<path d="M56.7298 9.45668H69.4091L68.271 12.9765H64.7737V26.0074H60.7601V12.9765L56.7298 12.982V9.45668Z" fill="#A1A1AA"/>
<path d="M37.1842 14.722H41.1534V26.0095H37.2064L37.1842 14.722Z" fill="#A1A1AA"/>
<path d="M42.7287 9.40591H46.698V17.113L50.6339 13.2788H55.3692L50.3952 18.0785L55.9687 26.0062H51.5942L47.8748 20.5059L46.698 21.6424V26.0007H42.7287V9.40591Z" fill="#A1A1AA"/>
<path d="M83.0933 9.40591H87.0626V17.113L90.9985 13.2788H95.7393L90.7653 18.0785L96.3389 26.0062H91.9644L88.245 20.5059L87.0681 21.6424V26.0007H83.0989V9.40591H83.0933Z" fill="#A1A1AA"/>
<path d="M39.1651 13.4288C40.2688 13.4288 41.1636 12.5396 41.1636 11.4428C41.1636 10.3459 40.2688 9.45668 39.1651 9.45668C38.0613 9.45668 37.1666 10.3459 37.1666 11.4428C37.1666 12.5396 38.0613 13.4288 39.1651 13.4288Z" fill="#A1A1AA"/>
<path d="M74.6779 12.4877C70.9252 12.4877 67.8775 15.511 67.8775 19.2404C67.8775 22.9698 70.9197 25.9986 74.6724 25.9986C78.4251 25.9986 81.4728 22.9753 81.4728 19.2459C81.4783 15.5165 78.4362 12.4933 74.6779 12.4877ZM74.6779 22.5285C72.8515 22.5285 71.3749 21.061 71.3749 19.2459C71.3749 17.4309 72.8515 15.9634 74.6779 15.9634C76.5043 15.9634 77.981 17.4309 77.981 19.2459C77.9865 21.061 76.5043 22.5285 74.6779 22.5285Z" fill="#A1A1AA"/>
</g>
<defs>
<clipPath id="clip0_9067_126617">
<rect width="96" height="36" fill="white"/>
</clipPath>
</defs>
</svg>
