<svg width="66" height="36" viewBox="0 0 66 36" fill="none" xmlns="http://www.w3.org/2000/svg">
<g clip-path="url(#clip0_9067_126605)">
<path d="M3.47721 19.477V6H0.215332V19.6465C0.215332 24.7746 3.8161 28.165 8.47592 28.165C10.7635 28.165 12.7545 27.275 14.2372 25.7493V27.7836H17.4567V6H14.1948V19.477C14.1948 22.9522 11.8649 25.2831 8.85718 25.2831C5.80712 25.2407 3.47721 22.9946 3.47721 19.477ZM20.6762 27.826H23.7686V25.8341C25.2089 27.3174 27.2423 28.2074 29.4451 28.2074C34.1049 28.2074 37.7904 24.5203 37.7904 19.9008C37.7904 15.2813 34.1049 11.5942 29.4451 11.5942C27.2423 11.5942 25.2513 12.4842 23.811 13.9675V6H20.6762V27.826ZM23.7686 19.9008C23.7686 16.807 26.2256 14.3913 29.2333 14.3913C32.241 14.3913 34.698 16.807 34.698 19.9008C34.698 22.9522 32.241 25.4103 29.2333 25.4103C26.1832 25.4103 23.7686 22.9522 23.7686 19.9008ZM39.6544 19.8584C39.6544 24.605 43.3398 28.165 48.0844 28.165C50.965 28.165 53.3373 26.8936 54.947 24.7746L52.6595 23.0793C51.4734 24.6474 49.906 25.4103 48.0844 25.4103C45.4156 25.4103 43.2551 23.4608 42.8315 20.8756H55.7519V19.8584C55.7519 15.1118 52.4053 11.5942 47.8302 11.5942C43.1704 11.5942 39.6544 15.3661 39.6544 19.8584ZM47.7455 14.349C50.0754 14.349 52.0241 15.9594 52.5748 18.4175H42.8739C43.4669 15.9594 45.4156 14.349 47.7455 14.349ZM66.2153 14.7304V11.8061H65.1139C63.3771 11.8061 62.1062 12.6114 61.3013 13.8828V11.9333H58.2513V27.826H61.3861V18.7565C61.3861 16.2985 62.8687 14.688 64.9445 14.688H66.2153V14.7304Z" fill="#A1A1AA"/>
</g>
<defs>
<clipPath id="clip0_9067_126605">
<rect width="66" height="36" fill="white"/>
</clipPath>
</defs>
</svg>
